<svg width="19" height="20" viewBox="0 0 19 20" fill="none" xmlns="http://www.w3.org/2000/svg">
<path d="M16.7717 10.6667H1.33341C1.14364 10.6667 0.985081 10.603 0.857748 10.4757C0.730415 10.3483 0.666748 10.1898 0.666748 9.99999C0.666748 9.81022 0.730415 9.65166 0.857748 9.52433C0.985081 9.39699 1.14364 9.33333 1.33341 9.33333H16.7717L9.52075 2.08199C9.39075 1.95222 9.32275 1.79922 9.31675 1.62299C9.31075 1.44699 9.3813 1.28544 9.52842 1.13833C9.6753 0.996549 9.83253 0.924327 10.0001 0.92166C10.1676 0.919216 10.3249 0.991438 10.4717 1.13833L18.5794 9.24599C18.6959 9.36244 18.7775 9.48133 18.8244 9.60266C18.8715 9.72399 18.8951 9.85644 18.8951 9.99999C18.8951 10.1435 18.8715 10.276 18.8244 10.3973C18.7775 10.5187 18.6959 10.6375 18.5794 10.754L10.4717 18.8617C10.3471 18.9863 10.1954 19.053 10.0167 19.0617C9.83808 19.0701 9.6753 19.0034 9.52842 18.8617C9.3813 18.7146 9.30775 18.556 9.30775 18.386C9.30775 18.2158 9.3813 18.0572 9.52842 17.9103L16.7717 10.6667Z" fill="#3DCFB6"/>
</svg>
