<svg width="32" height="29" viewBox="0 0 32 29" fill="none" xmlns="http://www.w3.org/2000/svg">
<path d="M15.993 17.4445C17.5676 17.4445 18.844 16.1675 18.844 14.5923C18.844 13.0171 17.5676 11.7401 15.993 11.7401C14.4185 11.7401 13.1421 13.0171 13.1421 14.5923C13.1421 16.1675 14.4185 17.4445 15.993 17.4445Z" fill="#61DAFB"/>
<path d="M31.9861 14.5922C31.9861 12.3522 29.3577 10.4044 25.269 9.2357C26.2981 5.10352 25.9365 1.84787 23.9896 0.734826C22.0426 -0.39213 19.0526 0.929609 15.993 3.87917C12.9335 0.915696 9.9435 -0.39213 7.99652 0.734826C6.38331 1.667 5.78531 4.03222 6.32768 7.39917C6.42503 7.99744 6.5641 8.60961 6.71708 9.24961C2.62842 10.4183 0 12.3661 0 14.6061C0 16.8461 2.62842 18.78 6.71708 19.9627C6.5641 20.5887 6.42503 21.2148 6.32768 21.8131C5.78531 25.18 6.38331 27.5453 7.99652 28.4774C8.46936 28.7557 9.01173 28.8948 9.60973 28.8948C11.0282 28.8948 12.7388 28.1157 14.6023 26.5992C15.0613 26.2235 15.5341 25.7922 15.993 25.347C16.452 25.7922 16.9248 26.2235 17.3837 26.5992C19.2473 28.1157 20.9578 28.8948 22.3764 28.8948C22.9744 28.8948 23.5167 28.7557 23.9896 28.4774C25.6028 27.5453 26.2008 25.18 25.6723 21.8131C25.575 21.2148 25.4359 20.6027 25.2829 19.9627C29.3716 18.794 32 16.8461 32 14.6061L31.9861 14.5922ZM23.2942 1.93135C24.5458 2.65483 24.824 5.2983 23.92 8.88787C22.6128 8.58178 21.1804 8.35917 19.6645 8.22004C18.7884 6.98178 17.8705 5.85483 16.9665 4.867C19.0804 2.82178 21.0413 1.70874 22.3903 1.70874C22.7379 1.70874 23.0439 1.7783 23.3081 1.93135H23.2942ZM20.4572 17.1661C19.9565 18.0148 19.442 18.8496 18.9135 19.6287C17.9817 19.6983 17.0083 19.74 16.007 19.74C15.0056 19.74 14.0322 19.6983 13.1004 19.6287C12.5719 18.8496 12.0435 18.0148 11.5567 17.1661C11.0561 16.3035 10.611 15.4548 10.1938 14.5922C10.611 13.7296 11.0561 12.8809 11.5567 12.0183C12.0574 11.1418 12.5858 10.3209 13.1004 9.5557C14.0322 9.48613 15.0056 9.44439 16.007 9.44439C17.0083 9.44439 17.9817 9.48613 18.9135 9.5557C19.442 10.3209 19.9565 11.1418 20.4572 12.0183C20.9439 12.867 21.4029 13.7296 21.8201 14.5922C21.4168 15.4409 20.9718 16.2896 20.4572 17.1661ZM22.5432 16.22C22.9326 17.1522 23.2664 18.0566 23.5445 18.947C22.6545 19.1418 21.6949 19.3227 20.6797 19.4479C21.0135 18.9331 21.3333 18.4044 21.6532 17.8618C21.9731 17.3192 22.2651 16.7627 22.5432 16.22ZM15.993 23.3157C15.3672 22.634 14.7414 21.8827 14.1295 21.0757C14.7414 21.1035 15.3533 21.1174 15.993 21.1174C16.6328 21.1174 17.2447 21.1035 17.8566 21.0757C17.2447 21.8827 16.6189 22.62 15.993 23.3157ZM11.3064 19.4479C10.2912 19.3227 9.33159 19.1557 8.44155 18.947C8.71969 18.0566 9.05345 17.1522 9.44285 16.22C9.72099 16.7627 10.013 17.3192 10.3329 17.8618C10.6528 18.4044 10.9726 18.9331 11.3064 19.4479ZM9.44285 12.9505C9.05345 12.0183 8.71969 11.114 8.44155 10.2235C9.33159 10.0287 10.2912 9.84787 11.3064 9.72265C10.9726 10.2374 10.6528 10.7661 10.3329 11.3087C10.013 11.8513 9.72099 12.394 9.44285 12.9505ZM15.993 5.85483C16.605 6.52265 17.2308 7.27396 17.8566 8.09483C17.2447 8.067 16.6328 8.05309 15.993 8.05309C15.3533 8.05309 14.7414 8.067 14.1295 8.09483C14.7553 7.27396 15.3672 6.52265 15.993 5.85483ZM21.6532 11.3227C21.3333 10.78 21.0135 10.2513 20.6797 9.73657C21.6949 9.86178 22.6545 10.0287 23.5445 10.2374C23.2803 11.114 22.9465 12.0183 22.5432 12.9644C22.2651 12.4218 21.9591 11.8653 21.6532 11.3227ZM7.69057 7.17657C7.25945 4.46352 7.62103 2.55744 8.69187 1.94526C8.95611 1.79222 9.26206 1.72265 9.60973 1.72265C10.9587 1.72265 12.9196 2.8357 15.0335 4.88091C14.1156 5.86874 13.2116 6.9957 12.3355 8.23396C10.8196 8.37309 9.38722 8.5957 8.07996 8.90178C7.92699 8.31743 7.80183 7.73309 7.71838 7.19048L7.69057 7.17657ZM1.3907 14.5922C1.3907 13.1453 3.53238 11.587 7.09257 10.5713C7.49587 11.8653 8.02434 13.2148 8.65015 14.5922C8.02434 15.9557 7.49587 17.3053 7.09257 18.6131C3.54628 17.5974 1.3907 16.0531 1.3907 14.5922ZM13.7262 25.4861C11.5984 27.2113 9.76271 27.8514 8.69187 27.2392C7.62103 26.627 7.25945 24.707 7.69057 22.0079C7.77401 21.4513 7.91308 20.8809 8.05215 20.2966C9.35941 20.6027 10.7918 20.8253 12.3077 20.9644C13.1838 22.1887 14.0878 23.3296 15.0056 24.3314C14.5745 24.7487 14.1434 25.1522 13.7123 25.5L13.7262 25.4861ZM24.2955 22.0079C24.7266 24.7209 24.3651 26.627 23.2942 27.2392C22.2234 27.8514 20.3877 27.2113 18.2599 25.4861C17.8288 25.1383 17.3977 24.7348 16.9665 24.3174C17.8983 23.3157 18.8023 22.1887 19.6645 20.9644C21.1804 20.8253 22.6128 20.6027 23.92 20.2966C24.073 20.8809 24.1982 21.4653 24.2816 22.0079H24.2955ZM24.8935 18.5992C24.4902 17.3053 23.9618 15.9557 23.3359 14.5783C23.9757 13.187 24.4902 11.8374 24.8935 10.5574C28.4537 11.5731 30.5954 13.1174 30.5954 14.5783C30.5954 16.0392 28.4537 17.5835 24.8935 18.5992Z" fill="#61DAFB"/>
</svg>
