<svg width="45" height="56" viewBox="0 0 45 56" fill="none" xmlns="http://www.w3.org/2000/svg">
<path fill-rule="evenodd" clip-rule="evenodd" d="M5.41885 8.78767C4.69123 9.46825 4.57147 9.94638 4.57147 10.1983C4.57147 10.4502 4.69123 10.9283 5.41885 11.6089C6.15024 12.293 7.33263 13.0143 8.98452 13.6679C12.2749 14.9696 16.9767 15.8251 22.2859 15.8251C27.5951 15.8251 32.2969 14.9696 35.5873 13.6679C37.2392 13.0143 38.4216 12.293 39.1529 11.6089C39.8806 10.9283 40.0003 10.4502 40.0003 10.1983C40.0003 9.94638 39.8806 9.46825 39.1529 8.78767C38.4216 8.10356 37.2392 7.38224 35.5873 6.72871C32.2969 5.42695 27.5951 4.57147 22.2859 4.57147C16.9767 4.57147 12.2749 5.42695 8.98452 6.72871C7.33263 7.38224 6.15024 8.10356 5.41885 8.78767ZM7.30277 2.47782C11.251 0.915797 16.5493 0 22.2859 0C28.0225 0 33.3208 0.915797 37.269 2.47782C39.2364 3.25618 40.983 4.23988 42.2758 5.44905C43.5723 6.66176 44.5718 8.26519 44.5718 10.1983C44.5718 12.1314 43.5723 13.7348 42.2758 14.9475C40.983 16.1567 39.2364 17.1404 37.269 17.9187C33.3208 19.4808 28.0225 20.3966 22.2859 20.3966C16.5493 20.3966 11.251 19.4808 7.30277 17.9187C5.33534 17.1404 3.58878 16.1567 2.29604 14.9475C0.999532 13.7348 0 12.1314 0 10.1983C0 8.26519 0.999532 6.66176 2.29604 5.44905C3.58878 4.23988 5.33534 3.25618 7.30277 2.47782Z" fill="white"/>
<path fill-rule="evenodd" clip-rule="evenodd" d="M2.28573 7.91301C3.54811 7.91301 4.57147 8.93591 4.57147 10.1983V22.0676C4.57147 22.3196 4.69129 22.7978 5.41885 23.4784C6.1502 24.1625 7.33255 24.8838 8.98442 25.5373C12.2747 26.839 16.9766 27.6944 22.2859 27.6944C27.5952 27.6944 32.297 26.839 35.5874 25.5373C37.2392 24.8838 38.4216 24.1625 39.1529 23.4784C39.8805 22.7978 40.0003 22.3196 40.0003 22.0676V10.1983C40.0003 8.93591 41.0237 7.91301 42.2861 7.91301C43.5484 7.91301 44.5718 8.93591 44.5718 10.1983V22.0676C44.5718 24.0007 43.5723 25.6042 42.2758 26.8169C40.9831 28.0262 39.2365 29.0098 37.2691 29.7882C33.3208 31.3502 28.0226 32.2659 22.2859 32.2659C16.5492 32.2659 11.2509 31.3502 7.3027 29.7882C5.33528 29.0098 3.58871 28.0262 2.29598 26.8169C0.999444 25.6042 0 24.0007 0 22.0676V10.1983C0 8.93591 1.02336 7.91301 2.28573 7.91301Z" fill="white"/>
<path fill-rule="evenodd" clip-rule="evenodd" d="M2.28573 19.7818C3.54811 19.7818 4.57147 20.8052 4.57147 22.0676V33.9364C4.57147 34.1885 4.69129 34.6666 5.41885 35.3472C6.1502 36.0313 7.33255 36.7526 8.98442 37.4061C12.2747 38.7078 16.9766 39.5632 22.2859 39.5632C27.5952 39.5632 32.297 38.7078 35.5874 37.4061C37.2392 36.7526 38.4216 36.0313 39.1529 35.3472C39.8805 34.6666 40.0003 34.1885 40.0003 33.9364V22.0676C40.0003 20.8052 41.0237 19.7818 42.2861 19.7818C43.5484 19.7818 44.5718 20.8052 44.5718 22.0676V33.9364C44.5718 35.8695 43.5723 37.473 42.2758 38.6857C40.9831 39.895 39.2365 40.8787 37.2691 41.657C33.3208 43.219 28.0226 44.1347 22.2859 44.1347C16.5492 44.1347 11.2509 43.219 7.3027 41.657C5.33528 40.8787 3.58871 39.895 2.29598 38.6857C0.999444 37.473 0 35.8695 0 33.9364V22.0676C0 20.8052 1.02336 19.7818 2.28573 19.7818Z" fill="white"/>
<path fill-rule="evenodd" clip-rule="evenodd" d="M2.28573 31.6472C3.54811 31.6472 4.57147 32.6705 4.57147 33.9329V45.8017C4.57147 46.0538 4.69129 46.532 5.41885 47.2125C6.1502 47.8966 7.33255 48.6179 8.98442 49.2714C12.2747 50.5731 16.9766 51.4285 22.2859 51.4285C27.5952 51.4285 32.297 50.5731 35.5874 49.2714C37.2392 48.6179 38.4216 47.8966 39.1529 47.2125C39.8805 46.532 40.0003 46.0538 40.0003 45.8017V33.9329C40.0003 32.6705 41.0237 31.6472 42.2861 31.6472C43.5484 31.6472 44.5718 32.6705 44.5718 33.9329V45.8017C44.5718 47.7348 43.5723 49.3383 42.2758 50.5511C40.9831 51.7603 39.2365 52.744 37.2691 53.5223C33.3208 55.0843 28.0226 56 22.2859 56C16.5492 56 11.2509 55.0843 7.3027 53.5223C5.33528 52.744 3.58871 51.7603 2.29598 50.5511C0.999444 49.3383 0 47.7348 0 45.8017V33.9329C0 32.6705 1.02336 31.6472 2.28573 31.6472Z" fill="white"/>
</svg>
