<svg width="47" height="56" viewBox="0 0 47 56" fill="none" xmlns="http://www.w3.org/2000/svg">
<g clip-path="url(#clip0_3390_3122)">
<path d="M45.9508 44.4452C45.7538 44.0846 45.5131 43.6687 45.1675 43.3032C44.649 42.759 44.3308 42.0703 44.1354 41.0696C43.9303 40.0121 43.5459 38.7694 42.4476 37.923C43.1502 34.7748 42.6947 31.6396 41.0408 28.1438C39.7503 25.4195 37.909 23.1177 36.1275 20.8922L35.7576 20.4292C34.136 18.397 33.4173 16.2625 33.4964 13.7104C33.5643 11.5467 33.3931 9.3114 32.9844 7.06802C32.2948 3.28141 30.0449 0.84147 26.6466 0.199809C25.9424 0.0682273 25.1688 0 24.3499 0C23.699 0 22.9964 0.0422359 22.2599 0.126708C18.453 0.560439 15.8171 3.03124 15.2082 6.73663C14.89 8.68111 14.806 10.7897 14.9594 13.007C15.2179 16.7498 14.3602 19.6755 12.2557 22.2145C11.1283 23.5758 10.0575 25.132 8.88328 27.1122C7.35858 29.6838 5.65622 33.1601 5.92918 37.3447C5.80643 37.4958 5.69014 37.6452 5.57546 37.7931C4.90679 38.6459 4.37864 39.3184 3.47739 39.5832C0.973919 40.3142 -0.0613875 42.067 0.397313 44.7896C0.579824 45.8731 0.547521 46.7211 0.295559 47.5398C-0.142145 48.9547 -0.0936904 50.087 0.440922 51.0032C0.98684 51.9356 1.98823 52.5448 3.50162 52.8648C3.81011 52.9298 4.12022 52.9785 4.42225 53.0126C6.7416 53.2677 8.51341 53.6007 10.1786 54.4665C11.2592 55.0269 12.485 55.2332 13.3136 55.3372C13.7012 55.3876 14.0776 55.4119 14.4313 55.4119C16.4211 55.4119 17.9701 54.6436 19.0393 53.1279C19.4156 53.0873 19.792 53.0435 20.1683 53.0012C21.735 52.8242 23.355 52.639 24.933 52.5643C25.0105 52.5594 25.0896 52.5578 25.1688 52.5578C25.6937 52.5578 26.2477 52.6325 26.8356 52.7121C27.2701 52.7706 27.7191 52.8307 28.1794 52.8648C29.1356 54.8596 30.9171 56 33.091 56C33.322 56 33.5594 55.987 33.7969 55.961C35.8029 55.745 37.5892 54.7589 39.1074 53.0305C39.9392 52.0834 40.9875 51.3037 42.3103 50.649L42.4185 50.5954C43.2002 50.2088 44.0094 49.8076 44.7814 49.3056C46.5759 48.1344 47.0023 46.3621 45.9508 44.4452ZM44.0772 48.214C43.3375 48.698 42.5332 49.0895 41.7385 49.4843C40.3737 50.1601 39.1607 51.008 38.1384 52.1711C36.9528 53.5194 35.4976 54.4698 33.658 54.6696C31.6907 54.8807 30.1063 54.0019 29.289 52.1809C29.0887 51.7374 28.8674 51.6042 28.399 51.5766C27.22 51.5067 26.0393 51.2095 24.8716 51.2663C22.7315 51.3687 20.6011 51.6546 18.4708 51.8836C18.3448 51.8966 18.2027 52.0461 18.1251 52.1679C17.0188 53.9093 15.339 54.2846 13.4751 54.049C12.5545 53.9321 11.5854 53.7339 10.7714 53.3115C8.80736 52.2914 6.70606 51.9567 4.56277 51.7212C4.29627 51.6903 4.02977 51.6481 3.76812 51.5928C1.5796 51.1315 0.868935 50.0593 1.52953 47.9248C1.88001 46.7877 1.86063 45.7042 1.67166 44.5736C1.33248 42.5625 1.90747 41.3945 3.83757 40.8308C5.46563 40.3548 6.1876 39.0293 7.15184 37.8986C7.23906 37.7963 7.2439 37.5916 7.2326 37.4389C6.94187 33.8684 8.23722 30.7396 9.99288 27.7783C10.9684 26.1327 12.0328 24.5147 13.249 23.0462C15.7105 20.0751 16.5116 16.7092 16.2483 12.9177C16.111 10.9391 16.1627 8.90041 16.4841 6.94781C17.0058 3.76062 19.2073 1.78203 22.4053 1.41815C23.7248 1.26708 25.1138 1.23296 26.4092 1.47826C29.5571 2.07119 31.1723 4.32756 31.7133 7.30195C32.0929 9.38938 32.2722 11.5515 32.2059 13.6698C32.1155 16.5695 32.9796 19.024 34.7498 21.2431C36.6347 23.605 38.5631 25.9345 39.873 28.7026C41.3541 31.8313 42.005 35.0412 40.9455 38.5549C42.2311 39.0634 42.6398 40.1485 42.8675 41.3198C43.0807 42.4065 43.4586 43.3861 44.2323 44.2015C44.4697 44.4517 44.6522 44.7652 44.8202 45.0723C45.539 46.3832 45.3225 47.4034 44.0772 48.214Z" fill="white"/>
<path d="M22.9237 11.3144C23.0126 10.8709 23.166 10.4225 23.3792 10.0262C24.379 8.16617 26.5594 8.13043 27.6416 9.93683C28.504 11.3777 28.3926 13.2231 27.3201 14.5324C26.8937 14.3554 26.5029 14.1929 26.2348 14.0808C26.301 13.2962 26.4431 12.6091 26.3931 11.9349C26.3494 11.3339 26.0506 10.7198 25.3287 10.7166C24.6552 10.7117 24.3983 11.2949 24.2417 11.8537C24.1415 12.2095 24.1448 12.5944 24.1028 12.9681C22.8349 12.713 22.6831 12.523 22.9237 11.3144Z" fill="white"/>
<path d="M17.9928 9.56486C18.5678 9.01579 19.2736 8.95894 19.8793 9.46414C20.7805 10.2179 21.0842 11.251 20.9517 12.3654C20.9162 12.6546 20.3929 12.8836 19.9665 13.2491C19.8583 12.5929 19.8421 11.537 19.0087 11.3177C18.3853 11.1552 18.2706 12.1396 18.2625 12.5392C18.2577 12.7732 18.6873 14.1637 18.5694 14.2579C18.5532 14.2709 18.3756 14.4171 18.2044 14.5584C16.8929 13.4522 16.7976 10.7085 17.9944 9.56486H17.9928Z" fill="white"/>
<path d="M27.0132 14.7924C25.9165 14.2953 24.8295 13.7706 23.7199 13.3044C23.1837 13.0786 22.6055 12.9567 22.045 12.7894C21.0485 12.8625 20.2635 13.2865 19.5464 13.8973C19.057 14.3164 18.5612 14.7307 18.0475 15.1189C16.7748 16.0806 16.7587 16.9399 18.0282 17.9455C18.5741 18.3808 19.1652 18.7593 19.695 19.2125C20.9871 20.3204 22.2615 20.4991 23.7765 19.7275C24.731 19.2418 25.6856 18.7528 26.6272 18.2427C26.9308 18.077 27.2216 17.8691 27.4751 17.6319C28.6316 16.5484 28.4458 15.4438 27.0132 14.7924ZM21.2988 18.5465C19.7499 18.4182 18.6548 17.4744 17.6987 16.3632C17.7471 16.2934 17.7956 16.2219 17.8457 16.1521C18.0879 16.3649 18.3334 16.5744 18.5741 16.7905C20.417 18.4539 21.8641 18.6586 24.0817 17.5329C24.752 17.1933 25.3851 16.7824 26.0457 16.425C26.3526 16.2576 26.6869 16.1423 27.0084 16.0042C27.0391 16.0871 27.0714 16.1699 27.102 16.2528C25.2188 17.1479 23.6085 18.7382 21.2988 18.5465Z" fill="white"/>
<path d="M17.5405 51.8804C16.8331 53.1426 15.5959 53.396 13.8128 53.5016C13.1199 53.3083 11.9085 53.1572 10.8764 52.6406C8.92535 51.666 6.86927 51.2907 4.74859 51.086C4.53378 51.0665 4.32219 51.0324 4.11061 50.9918C2.04646 50.5922 1.55868 49.8855 2.22089 47.8956C2.62791 46.6691 2.46962 45.5011 2.30165 44.299C2.08199 42.7233 2.49385 41.9322 3.99916 41.4497C5.29774 41.0322 6.22645 40.2557 7.00818 39.1576C8.33259 37.2992 9.83952 37.2424 11.2738 39.0212C11.978 39.8935 12.4706 40.9348 13.0747 41.8916C13.963 43.3 14.8513 44.7084 15.7655 46.1006C16.2387 46.8202 16.7879 47.4911 17.2627 48.2107C18.0299 49.3738 18.248 50.6166 17.5405 51.8804Z" fill="white"/>
<path d="M29.4346 47.1337C26.2204 49.2487 22.8399 50.0561 19.1186 48.5047C17.7974 47.9524 17.1465 46.8397 16.3971 45.7756C16.4617 45.7058 16.4908 45.6441 16.5328 45.6327C18.0849 45.2184 18.542 44.3364 17.6731 42.9491C17.027 41.9175 16.1193 41.0338 15.2455 40.168C14.7174 39.6433 14.0439 39.2599 13.4139 38.8473C10.8685 37.1725 10.0431 35.2995 10.5891 32.2813C11.0187 29.9014 12.1784 27.8449 13.4123 25.8256C13.4786 25.8565 13.5432 25.8858 13.6078 25.9166C13.2928 26.5534 12.9859 27.1951 12.6613 27.827C11.7051 29.6805 11.0042 31.6087 11.29 33.7335C11.4015 34.5717 11.7617 35.3758 12.0088 36.1962C12.0863 36.1718 12.1654 36.1475 12.243 36.1215C12.4174 35.0932 12.482 34.0308 12.7905 33.0447C13.296 31.4268 13.9017 29.8332 14.5736 28.277C15.7494 25.5495 17.0416 22.8708 17.6117 19.924C17.707 19.4253 17.7732 18.9217 17.8798 18.2557C18.471 18.704 18.9733 19.0484 19.4336 19.4431C20.8791 20.6859 22.2407 20.91 23.8914 20.0507C25.3563 19.2888 26.7841 18.4571 28.1957 17.6725C28.8143 19.4058 29.4023 21.2902 30.1565 23.1031C31.0788 25.3204 32.1803 27.4599 33.1252 29.6675C33.6129 30.8046 33.9618 32.0051 34.3139 33.1942C34.5836 34.1071 34.5433 34.1185 35.6642 34.2517C36.6736 30.496 35.1554 27.5801 32.8813 24.8315C32.9976 24.8916 33.1397 24.9273 33.2253 25.0183C35.6254 27.5752 37.1905 30.47 36.7754 34.1315C36.7269 34.5685 36.8787 34.7358 37.2309 34.9291C37.8882 35.2881 38.573 35.6488 39.1206 36.1491C39.5098 36.5032 39.7424 37.0669 39.9427 37.5786C40.0218 37.7849 39.8264 38.1001 39.6826 38.3405C39.0043 36.5065 36.8852 35.0331 34.8921 35.0445C33.9909 35.0493 33.4756 35.4554 33.1914 36.3554C33.1219 36.5763 33.0509 36.8882 32.8861 36.9711C31.1773 37.8369 30.872 39.4467 30.6362 41.1134C30.3891 42.8743 30.1307 44.6336 29.8448 46.3881C29.8012 46.6561 29.6461 46.994 29.4346 47.1337Z" fill="white"/>
<path d="M37.691 38.2885C37.1289 39.0666 36.3488 39.5929 35.4007 39.6124C34.9695 39.6205 34.3024 39.3184 34.1409 38.9707C33.8082 38.2495 33.6289 37.4064 33.6015 36.6055C33.5207 34.2696 38.9686 36.5194 37.691 38.2885Z" fill="white"/>
<path d="M43.6604 47.7104C43.0273 48.1132 42.3489 48.4511 41.6706 48.7728C40.1459 49.4973 38.7811 50.4135 37.6683 51.7179C36.7799 52.7592 35.6687 53.5129 34.3281 53.8866C31.5146 54.6696 29.2663 52.691 29.6959 49.7929C29.775 49.2585 29.8639 48.7159 30.0383 48.2107C30.82 45.9413 31.1318 43.5972 31.2901 41.2142C31.3385 40.4994 31.5178 39.7635 31.7907 39.1007C32.0104 38.5647 32.461 38.1261 32.8858 37.5364C33.1975 38.3973 33.3445 39.0098 33.6288 39.5507C34.1763 40.5952 35.0856 41.0241 36.1936 40.657C36.9931 40.3938 37.7829 39.9877 38.4613 39.4857C39.6097 38.6378 41.2345 38.9529 41.8418 40.2525C41.866 40.3012 41.9015 40.3467 41.9129 40.3987C42.2827 42.2506 43.0434 43.8945 44.208 45.4053C44.9332 46.3458 44.678 47.0638 43.6604 47.7104Z" fill="white"/>
</g>
<defs>
<clipPath id="clip0_3390_3122">
<rect width="46.5161" height="56" fill="white"/>
</clipPath>
</defs>
</svg>
